<?xml version="1.0" encoding="utf-8"?>
<!-- Generator: Adobe Illustrator 24.1.3, SVG Export Plug-In . SVG Version: 6.00 Build 0)  -->
<svg version="1.1" id="Layer_1" xmlns="http://www.w3.org/2000/svg" xmlns:xlink="http://www.w3.org/1999/xlink" x="0px" y="0px"
	 viewBox="0 0 5213.1 1763.3" style="enable-background:new 0 0 5213.1 1763.3;" xml:space="preserve">
<style type="text/css">
	.st0{fill:#FF5254;}
	.st1{fill:#FCB653;}
	.st2{fill:#5CACC4;}
	.st3{fill:#CEE879;}
</style>
<g>
	<g>
		<path class="st0" d="M2223.2,901.7c0,240.1-187.5,416.4-416.4,416.4s-416.4-176.3-416.4-416.4c0-241.9,187.5-416.4,416.4-416.4
			S2223.2,661.7,2223.2,901.7z M2039.4,901.7c0-150-108.8-251.3-234.4-251.3s-234.4,103.1-234.4,251.3S1679.3,1153,1805,1153
			S2039.4,1049.9,2039.4,901.7z"/>
		<path class="st1" d="M3123.4,901.7c0,240.1-187.5,416.4-416.4,416.4c-228.8,0-418.2-176.3-418.2-416.4s187.5-416.4,418.2-416.4
			S3123.4,661.7,3123.4,901.7z M2939.6,901.7c0-150-108.8-251.3-234.4-251.3c-125.7,0-234.4,103.1-234.4,251.3
			s108.8,251.3,234.4,251.3S2939.6,1049.9,2939.6,901.7z"/>
		<path class="st2" d="M3986.1,511.6V1258c0,307.6-181.9,433.2-395.7,433.2c-202.5,0-322.6-135-369.5-245.7l159.4-65.6
			c28.1,67.5,97.5,148.2,210.1,148.2c136.9,0,221.3-84.4,221.3-243.8v-60h-5.6c-41.3,50.6-120,93.8-219.4,93.8
			c-208.2,0-397.6-181.9-397.6-414.5c0-234.4,191.3-418.2,397.6-418.2c99.4,0,178.2,45,219.4,93.8h5.6v-67.5L3986.1,511.6
			L3986.1,511.6z M3824.8,903.6c0-146.3-97.5-253.2-221.3-253.2c-125.7,0-232.6,106.9-232.6,253.2c0,144.4,105,251.3,232.6,251.3
			C3727.3,1154.9,3824.8,1048,3824.8,903.6z"/>
		<path class="st3" d="M4271.2,72.8v1219H4093V72.8H4271.2z"/>
		<path class="st0" d="M4965.1,1038.6l142.5,93.8c-45,67.5-155.7,183.8-347,183.8c-236.3,0-412.6-181.9-412.6-416.4
			c0-247.6,178.2-416.4,392-416.4c215.7,0,320.7,172.5,356.3,264.4l18.8,46.9L4560,1027.4c43.1,84.4,108.8,125.7,202.5,125.7
			C4854.4,1154.9,4918.2,1108,4965.1,1038.6L4965.1,1038.6z M4530,888.6l371.3-153.8c-20.6-52.5-82.5-88.1-153.8-88.1
			C4653.8,646.7,4524.4,729.2,4530,888.6z"/>
		<path class="st2" d="M713.4,794.8V618.5H1308c5.6,30,9.4,67.5,9.4,106.9c0,133.2-35.6,296.3-153.8,412.6
			c-112.5,118.2-258.8,181.9-450.1,181.9C357.2,1319.9,59,1029.2,59,674.7S359,29.6,713.4,29.6c196.9,0,337.6,76.9,442.6,178.2
			l-123.8,123.8c-75-71.3-178.2-125.7-318.8-125.7c-260.7,0-463.2,210.1-463.2,468.9s202.5,468.9,463.2,468.9
			c168.8,0,264.4-67.5,326.3-129.4c50.6-50.6,82.5-121.9,95.6-219.4L713.4,794.8z"/>
	</g>
	<g>
		<path class="st2" d="M4096.8,1675.2v-217.6h71.1c23.6,0,41.4,4.9,53.3,14.6c11.9,9.8,17.9,24.2,17.9,43.3c0,10.2-2.9,19.2-8.7,27
			c-5.8,7.8-13.7,13.9-23.6,18.2c11.8,3.3,21,9.5,27.9,18.8c6.8,9.2,10.2,20.2,10.2,33c0,19.5-6.3,34.9-19,46
			c-12.7,11.2-30.5,16.7-53.7,16.7H4096.8z M4125.5,1550.4h43.3c12.6,0,22.6-3.1,30.1-9.4s11.3-14.8,11.3-25.6
			c0-12-3.5-20.7-10.5-26.1s-17.6-8.2-31.8-8.2h-42.4V1550.4z M4125.5,1573.4v78.3h47.4c13.4,0,23.9-3.5,31.6-10.4
			s11.6-16.5,11.6-28.6c0-26.2-14.2-39.3-42.7-39.3H4125.5z"/>
		<path class="st2" d="M4275.7,1592.8c0-15.8,3.1-30.1,9.3-42.7c6.2-12.7,14.9-22.4,26-29.3s23.8-10.3,38-10.3
			c22,0,39.8,7.6,53.4,22.9c13.6,15.2,20.4,35.5,20.4,60.8v1.9c0,15.7-3,29.9-9,42.4s-14.6,22.2-25.9,29.2
			c-11.2,7-24.1,10.5-38.6,10.5c-21.9,0-39.7-7.6-53.3-22.9c-13.6-15.2-20.4-35.4-20.4-60.5v-2H4275.7z M4303.5,1596.1
			c0,17.9,4.2,32.3,12.5,43.2c8.3,10.9,19.5,16.3,33.4,16.3c14,0,25.2-5.5,33.5-16.5s12.4-26.4,12.4-46.3c0-17.7-4.2-32.1-12.6-43.1
			s-19.6-16.5-33.6-16.5c-13.7,0-24.7,5.4-33,16.3C4307.6,1560.3,4303.5,1575.9,4303.5,1596.1z"/>
		<path class="st2" d="M4450.2,1592.8c0-15.8,3.1-30.1,9.3-42.7c6.2-12.7,14.9-22.4,26-29.3s23.8-10.3,38-10.3
			c22,0,39.8,7.6,53.4,22.9c13.6,15.2,20.4,35.5,20.4,60.8v1.9c0,15.7-3,29.9-9,42.4s-14.6,22.2-25.9,29.2
			c-11.2,7-24.1,10.5-38.6,10.5c-21.9,0-39.7-7.6-53.3-22.9c-13.6-15.2-20.4-35.4-20.4-60.5v-2H4450.2z M4478,1596.1
			c0,17.9,4.2,32.3,12.5,43.2c8.3,10.9,19.5,16.3,33.4,16.3c14,0,25.2-5.5,33.5-16.5s12.4-26.4,12.4-46.3c0-17.7-4.2-32.1-12.6-43.1
			s-19.6-16.5-33.6-16.5c-13.7,0-24.7,5.4-33,16.3C4482.2,1560.3,4478,1575.9,4478,1596.1z"/>
		<path class="st2" d="M4677.3,1600.3l-17.3,18.1v56.8h-27.6v-229.6h27.6v138.8l14.8-17.8l50.4-53.2h33.6l-62.9,67.6l70.2,94.2
			h-32.4L4677.3,1600.3z"/>
		<path class="st2" d="M4881.4,1632.3c0-7.5-2.8-13.3-8.4-17.4s-15.4-7.7-29.4-10.7s-25.1-6.6-33.3-10.8
			c-8.2-4.2-14.3-9.2-18.2-14.9c-3.9-5.8-5.9-12.7-5.9-20.6c0-13.2,5.6-24.5,16.8-33.6c11.2-9.2,25.5-13.8,43-13.8
			c18.3,0,33.2,4.7,44.6,14.2s17.1,21.6,17.1,36.3h-27.8c0-7.6-3.2-14.1-9.6-19.6s-14.5-8.2-24.3-8.2c-10.1,0-17.9,2.2-23.6,6.6
			s-8.5,10.1-8.5,17.2c0,6.7,2.6,11.7,7.9,15.1s14.8,6.6,28.6,9.7c13.8,3.1,25,6.8,33.6,11.1c8.6,4.3,14.9,9.4,19.1,15.5
			c4.1,6,6.2,13.4,6.2,22c0,14.4-5.8,26-17.3,34.7c-11.6,8.7-26.6,13.1-45,13.1c-13,0-24.4-2.3-34.4-6.9s-17.8-11-23.4-19.2
			s-8.4-17.1-8.4-26.7h27.6c0.5,9.3,4.2,16.6,11.1,22s16.1,8.1,27.4,8.1c10.5,0,18.9-2.1,25.2-6.4
			C4878.2,1645,4881.4,1639.3,4881.4,1632.3z"/>
	</g>
</g>
</svg>
